<svg width="256" height="209" viewBox="0 0 256 209" fill="none" xmlns="http://www.w3.org/2000/svg">
<path d="M92.0315 106.397C91.2474 105.598 89.9607 105.598 89.1769 106.397L70.7546 125.175C64.1847 131.791 55.3131 135.489 46.0773 135.461C36.8416 135.433 27.9919 131.681 21.4611 125.024C14.9303 118.367 11.249 109.347 11.2212 99.9322C11.1933 90.5178 14.8211 81.4747 21.3123 74.7781L50.0655 45.4695C50.6368 44.8871 50.9411 44.0973 50.935 43.2815C50.9342 43.1735 50.9337 43.0654 50.9337 42.9573C50.9317 39.7035 51.2274 36.4594 51.8155 33.2668C52.0009 32.2605 50.7223 31.5566 50.0057 32.287L14.8197 68.1527C6.58903 76.6025 1.97921 88.0331 2.00007 99.9404C2.02093 111.848 6.67077 123.261 14.931 131.681C23.1913 140.101 34.3887 144.84 46.0704 144.861C57.7521 144.882 68.9658 140.183 77.2553 131.793L95.729 112.963C96.4924 112.185 96.4921 110.939 95.7283 110.161L92.0315 106.397Z" fill="#1D1D1D"/>
<path d="M155.91 146.957C150.112 146.967 144.37 145.809 139.013 143.55C133.656 141.292 128.789 137.976 124.693 133.795L68.7545 76.7763C60.4942 68.3329 55.8593 56.8929 55.8676 44.9687C55.8759 33.0446 60.5267 21.6112 68.7987 13.1797C77.0708 4.74825 88.2874 0.00799578 99.9861 1.01058e-05C111.684 -0.00797549 122.907 4.71698 131.19 13.1371L187.128 70.1558C193.305 76.4465 197.513 84.4636 199.218 93.1933C200.924 101.922 200.049 110.971 196.707 119.194C193.364 127.417 187.704 134.443 180.442 139.386C173.179 144.328 164.642 146.963 155.91 146.957ZM131.19 127.175C137.763 133.778 146.63 137.464 155.858 137.43C165.086 137.396 173.927 133.644 180.453 126.992C186.978 120.341 190.659 111.329 190.692 101.923C190.726 92.5161 187.109 83.4772 180.632 76.778L124.693 19.7593C121.455 16.4107 117.6 13.7483 113.348 11.9254C109.096 10.1026 104.533 9.15534 99.9204 9.13831C95.3073 9.12119 90.7372 10.0347 86.4728 11.826C82.2085 13.6174 78.3335 16.2513 75.072 19.5758C71.8104 22.9004 69.2264 26.8499 67.4691 31.1969C65.7117 35.5439 64.8155 40.2024 64.8323 44.904C64.849 49.6056 65.7783 54.2574 67.5666 58.5913C69.3549 62.9251 71.9668 66.8555 75.252 70.1558L131.19 127.175Z" fill="#1D1D1D"/>
<path d="M178.634 15.1372L160.16 33.9685C159.397 34.7463 159.397 35.9919 160.16 36.7697L163.855 40.536C164.639 41.3351 165.926 41.3351 166.71 40.536L185.131 21.7594C191.704 15.1563 200.571 11.4699 209.8 11.504C219.027 11.5382 227.868 15.29 234.394 21.9416C240.919 28.5931 244.6 37.6046 244.633 47.0112C244.667 56.4178 241.051 65.4564 234.573 72.1559L205.798 101.487C205.226 102.07 204.92 102.861 204.925 103.677C204.945 107.043 204.645 110.4 204.033 113.703C203.847 114.71 205.126 115.415 205.843 114.685L241.069 78.778C249.349 70.3388 254 58.8926 254 46.9576C254 35.0226 249.349 23.5766 241.069 15.1372C232.79 6.69795 221.561 1.95679 209.851 1.95679C198.143 1.95679 186.914 6.69795 178.634 15.1372Z" fill="#1D1D1D"/>
<mask id="path-2-inside-1_2073_189" fill="white">
<path d="M39.487 204.959L26.315 190.677V197.337C26.315 203.775 21.653 208.437 15.215 208.437C8.77704 208.437 4.11504 203.775 4.11504 197.337V164.777C4.11504 158.339 8.77704 153.677 15.215 153.677C18.619 153.677 21.505 154.935 23.503 157.155L36.675 171.437V164.777C36.675 158.339 41.337 153.677 47.775 153.677C54.213 153.677 58.875 158.339 58.875 164.777V197.337C58.875 203.775 54.213 208.437 47.775 208.437C44.371 208.437 41.485 207.179 39.487 204.959ZM101.487 203.109L98.9715 198.817H85.7255L83.2835 203.109C81.1375 206.809 77.5855 208.437 73.6635 208.437C67.2255 208.437 62.5635 203.775 62.5635 197.337C62.5635 195.265 63.0815 193.341 63.9695 191.713L82.6915 159.153C84.6155 155.823 88.0195 153.677 92.3855 153.677C96.7515 153.677 100.155 155.823 102.079 159.153L120.801 191.713C121.689 193.341 122.207 195.265 122.207 197.337C122.207 203.775 117.545 208.437 111.107 208.437C107.185 208.437 103.633 206.809 101.487 203.109ZM138.494 159.005L147.596 174.841L156.698 159.005C158.844 155.305 162.396 153.677 166.318 153.677C172.756 153.677 177.418 158.339 177.418 164.777C177.418 166.849 176.9 168.773 176.012 170.401L157.29 202.961C155.366 206.291 151.962 208.437 147.596 208.437C143.23 208.437 139.826 206.291 137.902 202.961L119.18 170.401C118.292 168.773 117.774 166.849 117.774 164.777C117.774 158.339 122.436 153.677 128.874 153.677C132.796 153.677 136.348 155.305 138.494 159.005ZM181.094 197.337V164.777C181.094 158.339 185.756 153.677 192.194 153.677C198.632 153.677 203.294 158.339 203.294 164.777V197.337C203.294 203.775 198.632 208.437 192.194 208.437C185.756 208.437 181.094 203.775 181.094 197.337ZM211.98 196.449C211.314 194.969 210.944 193.341 210.944 191.565C210.944 189.345 211.536 187.273 212.572 185.497C210.944 182.463 209.982 178.911 209.982 174.989C209.982 162.631 218.936 153.677 231.294 153.677C240.174 153.677 247.352 158.413 250.608 165.665C251.274 167.145 251.644 168.773 251.644 170.549C251.644 172.843 251.052 174.915 250.016 176.617C251.644 179.651 252.606 183.203 252.606 187.125C252.606 199.483 243.652 208.437 231.294 208.437C222.414 208.437 215.236 203.701 211.98 196.449Z"/>
</mask>
<path d="M39.487 204.959L43.9468 200.945L43.9224 200.918L43.8976 200.891L39.487 204.959ZM26.315 190.677L30.7256 186.609L20.315 175.321V190.677H26.315ZM23.503 157.155L19.0433 161.169L19.0677 161.196L19.0925 161.223L23.503 157.155ZM36.675 171.437L32.2645 175.505L42.675 186.792V171.437H36.675ZM39.487 204.959L43.8976 200.891L30.7256 186.609L26.315 190.677L21.9045 194.745L35.0765 209.027L39.487 204.959ZM26.315 190.677H20.315V197.337H26.315H32.315V190.677H26.315ZM26.315 197.337H20.315C20.315 200.461 18.3393 202.437 15.215 202.437V208.437V214.437C24.9667 214.437 32.315 207.088 32.315 197.337H26.315ZM15.215 208.437V202.437C12.0907 202.437 10.115 200.461 10.115 197.337H4.11504H-1.88496C-1.88496 207.088 5.46333 214.437 15.215 214.437V208.437ZM4.11504 197.337H10.115V164.777H4.11504H-1.88496V197.337H4.11504ZM4.11504 164.777H10.115C10.115 161.652 12.0907 159.677 15.215 159.677V153.677V147.677C5.46333 147.677 -1.88496 155.025 -1.88496 164.777H4.11504ZM15.215 153.677V159.677C17.0799 159.677 18.287 160.328 19.0433 161.169L23.503 157.155L27.9628 153.141C24.7231 149.541 20.1582 147.677 15.215 147.677V153.677ZM23.503 157.155L19.0925 161.223L32.2645 175.505L36.675 171.437L41.0856 167.369L27.9136 153.087L23.503 157.155ZM36.675 171.437H42.675V164.777H36.675H30.675V171.437H36.675ZM36.675 164.777H42.675C42.675 161.652 44.6507 159.677 47.775 159.677V153.677V147.677C38.0233 147.677 30.675 155.025 30.675 164.777H36.675ZM47.775 153.677V159.677C50.8993 159.677 52.875 161.652 52.875 164.777H58.875H64.875C64.875 155.025 57.5268 147.677 47.775 147.677V153.677ZM58.875 164.777H52.875V197.337H58.875H64.875V164.777H58.875ZM58.875 197.337H52.875C52.875 200.461 50.8993 202.437 47.775 202.437V208.437V214.437C57.5268 214.437 64.875 207.088 64.875 197.337H58.875ZM47.775 208.437V202.437C45.9102 202.437 44.7031 201.785 43.9468 200.945L39.487 204.959L35.0273 208.973C38.267 212.572 42.8319 214.437 47.775 214.437V208.437ZM101.487 203.109L106.678 200.098L106.671 200.086L106.664 200.074L101.487 203.109ZM98.9715 198.817L104.148 195.782L102.409 192.817H98.9715V198.817ZM85.7255 198.817V192.817H82.2361L80.5105 195.85L85.7255 198.817ZM83.2835 203.109L88.4737 206.119L88.4862 206.098L88.4985 206.076L83.2835 203.109ZM63.9695 191.713L58.768 188.722L58.7344 188.78L58.7021 188.84L63.9695 191.713ZM82.6915 159.153L77.4963 156.151L77.49 156.162L82.6915 159.153ZM102.079 159.153L107.281 156.162L107.275 156.151L102.079 159.153ZM120.801 191.713L126.069 188.84L126.037 188.78L126.003 188.722L120.801 191.713ZM101.487 203.109L106.664 200.074L104.148 195.782L98.9715 198.817L93.7953 201.851L96.3113 206.143L101.487 203.109ZM98.9715 198.817V192.817H85.7255V198.817V204.817H98.9715V198.817ZM85.7255 198.817L80.5105 195.85L78.0685 200.142L83.2835 203.109L88.4985 206.076L90.9405 201.784L85.7255 198.817ZM83.2835 203.109L78.0933 200.098C77.1853 201.664 75.7961 202.437 73.6635 202.437V208.437V214.437C79.3749 214.437 85.0896 211.954 88.4737 206.119L83.2835 203.109ZM73.6635 208.437V202.437C70.5392 202.437 68.5635 200.461 68.5635 197.337H62.5635H56.5635C56.5635 207.088 63.9118 214.437 73.6635 214.437V208.437ZM62.5635 197.337H68.5635C68.5635 196.268 68.8299 195.332 69.2368 194.586L63.9695 191.713L58.7021 188.84C57.333 191.35 56.5635 194.262 56.5635 197.337H62.5635ZM63.9695 191.713L69.1709 194.704L87.8929 162.144L82.6915 159.153L77.49 156.162L58.768 188.722L63.9695 191.713ZM82.6915 159.153L87.8867 162.154C88.7552 160.651 90.1954 159.677 92.3855 159.677V153.677V147.677C85.8436 147.677 80.4757 150.994 77.4963 156.151L82.6915 159.153ZM92.3855 153.677V159.677C94.5756 159.677 96.0157 160.651 96.8843 162.154L102.079 159.153L107.275 156.151C104.295 150.994 98.9274 147.677 92.3855 147.677V153.677ZM102.079 159.153L96.878 162.144L115.6 194.704L120.801 191.713L126.003 188.722L107.281 156.162L102.079 159.153ZM120.801 191.713L115.534 194.586C115.941 195.332 116.207 196.268 116.207 197.337H122.207H128.207C128.207 194.262 127.438 191.35 126.069 188.84L120.801 191.713ZM122.207 197.337H116.207C116.207 200.461 114.232 202.437 111.107 202.437V208.437V214.437C120.859 214.437 128.207 207.088 128.207 197.337H122.207ZM111.107 208.437V202.437C108.975 202.437 107.586 201.664 106.678 200.098L101.487 203.109L96.2973 206.119C99.6814 211.954 105.396 214.437 111.107 214.437V208.437ZM138.494 159.005L143.696 156.015L143.691 156.005L143.685 155.994L138.494 159.005ZM147.596 174.841L142.394 177.831L147.596 186.881L152.798 177.831L147.596 174.841ZM156.698 159.005L151.508 155.994L151.502 156.005L151.496 156.015L156.698 159.005ZM176.012 170.401L181.214 173.392L181.247 173.333L181.28 173.274L176.012 170.401ZM157.29 202.961L162.486 205.962L162.492 205.952L157.29 202.961ZM137.902 202.961L132.701 205.952L132.707 205.962L137.902 202.961ZM119.18 170.401L113.913 173.274L113.945 173.333L113.979 173.392L119.18 170.401ZM138.494 159.005L133.292 161.995L142.394 177.831L147.596 174.841L152.798 171.851L143.696 156.015L138.494 159.005ZM147.596 174.841L152.798 177.831L161.9 161.995L156.698 159.005L151.496 156.015L142.394 171.851L147.596 174.841ZM156.698 159.005L161.889 162.015C162.797 160.45 164.186 159.677 166.318 159.677V153.677V147.677C160.607 147.677 154.892 150.16 151.508 155.994L156.698 159.005ZM166.318 153.677V159.677C169.443 159.677 171.418 161.652 171.418 164.777H177.418H183.418C183.418 155.025 176.07 147.677 166.318 147.677V153.677ZM177.418 164.777H171.418C171.418 165.846 171.152 166.782 170.745 167.528L176.012 170.401L181.28 173.274C182.649 170.764 183.418 167.852 183.418 164.777H177.418ZM176.012 170.401L170.811 167.41L152.089 199.97L157.29 202.961L162.492 205.952L181.214 173.392L176.012 170.401ZM157.29 202.961L152.095 199.959C151.227 201.462 149.787 202.437 147.596 202.437V208.437V214.437C154.138 214.437 159.506 211.119 162.486 205.962L157.29 202.961ZM147.596 208.437V202.437C145.406 202.437 143.966 201.462 143.098 199.959L137.902 202.961L132.707 205.962C135.687 211.119 141.055 214.437 147.596 214.437V208.437ZM137.902 202.961L143.104 199.97L124.382 167.41L119.18 170.401L113.979 173.392L132.701 205.952L137.902 202.961ZM119.18 170.401L124.448 167.528C124.041 166.782 123.774 165.846 123.774 164.777H117.774H111.774C111.774 167.852 112.544 170.764 113.913 173.274L119.18 170.401ZM117.774 164.777H123.774C123.774 161.652 125.75 159.677 128.874 159.677V153.677V147.677C119.123 147.677 111.774 155.025 111.774 164.777H117.774ZM128.874 153.677V159.677C131.007 159.677 132.396 160.45 133.304 162.015L138.494 159.005L143.685 155.994C140.301 150.16 134.586 147.677 128.874 147.677V153.677ZM181.094 197.337H187.094V164.777H181.094H175.094V197.337H181.094ZM181.094 164.777H187.094C187.094 161.652 189.069 159.677 192.194 159.677V153.677V147.677C182.442 147.677 175.094 155.025 175.094 164.777H181.094ZM192.194 153.677V159.677C195.318 159.677 197.294 161.652 197.294 164.777H203.294H209.294C209.294 155.025 201.945 147.677 192.194 147.677V153.677ZM203.294 164.777H197.294V197.337H203.294H209.294V164.777H203.294ZM203.294 197.337H197.294C197.294 200.461 195.318 202.437 192.194 202.437V208.437V214.437C201.945 214.437 209.294 207.088 209.294 197.337H203.294ZM192.194 208.437V202.437C189.069 202.437 187.094 200.461 187.094 197.337H181.094H175.094C175.094 207.088 182.442 214.437 192.194 214.437V208.437ZM211.98 196.449L217.454 193.991L217.452 193.987L211.98 196.449ZM212.572 185.497L217.755 188.52L219.447 185.619L217.859 182.66L212.572 185.497ZM250.608 165.665L245.135 168.122L245.137 168.127L250.608 165.665ZM250.016 176.617L244.891 173.497L243.107 176.429L244.73 179.454L250.016 176.617ZM211.98 196.449L217.452 193.987C217.13 193.272 216.944 192.482 216.944 191.565H210.944H204.944C204.944 194.2 205.499 196.666 206.509 198.911L211.98 196.449ZM210.944 191.565H216.944C216.944 190.425 217.245 189.394 217.755 188.52L212.572 185.497L207.39 182.474C205.828 185.151 204.944 188.264 204.944 191.565H210.944ZM212.572 185.497L217.859 182.66C216.695 180.489 215.982 177.911 215.982 174.989H209.982H203.982C203.982 179.911 205.194 184.436 207.285 188.334L212.572 185.497ZM209.982 174.989H215.982C215.982 165.944 222.25 159.677 231.294 159.677V153.677V147.677C215.623 147.677 203.982 159.317 203.982 174.989H209.982ZM231.294 153.677V159.677C237.92 159.677 242.89 163.123 245.135 168.122L250.608 165.665L256.082 163.207C251.815 153.702 242.429 147.677 231.294 147.677V153.677ZM250.608 165.665L245.137 168.127C245.459 168.842 245.644 169.632 245.644 170.549H251.644H257.644C257.644 167.914 257.09 165.448 256.08 163.203L250.608 165.665ZM251.644 170.549H245.644C245.644 171.802 245.325 172.785 244.891 173.497L250.016 176.617L255.142 179.736C256.78 177.044 257.644 173.883 257.644 170.549H251.644ZM250.016 176.617L244.73 179.454C245.894 181.624 246.606 184.203 246.606 187.125H252.606H258.606C258.606 182.203 257.395 177.677 255.303 173.78L250.016 176.617ZM252.606 187.125H246.606C246.606 196.169 240.339 202.437 231.294 202.437V208.437V214.437C246.966 214.437 258.606 202.796 258.606 187.125H252.606ZM231.294 208.437V202.437C224.669 202.437 219.699 198.99 217.454 193.991L211.98 196.449L206.507 198.906C210.774 208.411 220.16 214.437 231.294 214.437V208.437Z" fill="#1D1D1D" mask="url(#path-2-inside-1_2073_189)"/>
</svg>
