<svg width="256" height="209" viewBox="0 0 256 209" fill="none" xmlns="http://www.w3.org/2000/svg">
<path d="M92.0315 106.397C91.2474 105.598 89.9607 105.598 89.1769 106.397L70.7546 125.175C64.1847 131.791 55.3131 135.489 46.0773 135.461C36.8416 135.433 27.9919 131.681 21.4611 125.024C14.9303 118.367 11.249 109.347 11.2212 99.9322C11.1933 90.5178 14.8211 81.4747 21.3123 74.7781L50.0655 45.4695C50.6368 44.8871 50.9411 44.0973 50.935 43.2815C50.9342 43.1735 50.9337 43.0654 50.9337 42.9573C50.9317 39.7035 51.2274 36.4594 51.8155 33.2668C52.0009 32.2605 50.7223 31.5566 50.0057 32.287L14.8197 68.1527C6.58903 76.6025 1.97921 88.0331 2.00007 99.9404C2.02093 111.848 6.67077 123.261 14.931 131.681C23.1913 140.101 34.3887 144.84 46.0704 144.861C57.7521 144.882 68.9658 140.183 77.2553 131.793L95.729 112.963C96.4924 112.185 96.4921 110.939 95.7283 110.161L92.0315 106.397Z" fill="#D9D9D9"/>
<path d="M155.91 146.957C150.112 146.967 144.37 145.809 139.013 143.55C133.656 141.292 128.789 137.976 124.693 133.795L68.7545 76.7763C60.4942 68.3329 55.8593 56.8929 55.8676 44.9687C55.8759 33.0446 60.5267 21.6112 68.7987 13.1797C77.0708 4.74825 88.2874 0.00799578 99.9861 1.01058e-05C111.684 -0.00797549 122.907 4.71698 131.19 13.1371L187.128 70.1558C193.305 76.4465 197.513 84.4636 199.218 93.1933C200.924 101.922 200.049 110.971 196.707 119.194C193.364 127.417 187.704 134.443 180.442 139.386C173.179 144.328 164.642 146.963 155.91 146.957ZM131.19 127.175C137.763 133.778 146.63 137.464 155.858 137.43C165.086 137.396 173.927 133.644 180.453 126.992C186.978 120.341 190.659 111.329 190.692 101.923C190.726 92.5161 187.109 83.4772 180.632 76.778L124.693 19.7593C121.455 16.4107 117.6 13.7483 113.348 11.9254C109.096 10.1026 104.533 9.15534 99.9204 9.13831C95.3073 9.12119 90.7372 10.0347 86.4728 11.826C82.2085 13.6174 78.3335 16.2513 75.072 19.5758C71.8104 22.9004 69.2264 26.8499 67.4691 31.1969C65.7117 35.5439 64.8155 40.2024 64.8323 44.904C64.849 49.6056 65.7783 54.2574 67.5666 58.5913C69.3549 62.9251 71.9668 66.8555 75.252 70.1558L131.19 127.175Z" fill="#D9D9D9"/>
<path d="M178.634 15.1372L160.16 33.9685C159.397 34.7463 159.397 35.9919 160.16 36.7697L163.855 40.536C164.639 41.3351 165.926 41.3351 166.71 40.536L185.131 21.7594C191.704 15.1563 200.571 11.4699 209.8 11.504C219.027 11.5382 227.868 15.29 234.394 21.9416C240.919 28.5931 244.6 37.6046 244.633 47.0112C244.667 56.4178 241.051 65.4564 234.573 72.1559L205.798 101.487C205.226 102.07 204.92 102.861 204.925 103.677C204.945 107.043 204.645 110.4 204.033 113.703C203.847 114.71 205.126 115.415 205.843 114.685L241.069 78.778C249.349 70.3388 254 58.8926 254 46.9576C254 35.0226 249.349 23.5766 241.069 15.1372C232.79 6.69795 221.561 1.95679 209.851 1.95679C198.143 1.95679 186.914 6.69795 178.634 15.1372Z" fill="#D9D9D9"/>
<mask id="path-2-inside-1_2071_220" fill="white">
<path d="M39.487 204.959L26.315 190.677V197.337C26.315 203.775 21.653 208.437 15.215 208.437C8.77704 208.437 4.11504 203.775 4.11504 197.337V164.777C4.11504 158.339 8.77704 153.677 15.215 153.677C18.619 153.677 21.505 154.935 23.503 157.155L36.675 171.437V164.777C36.675 158.339 41.337 153.677 47.775 153.677C54.213 153.677 58.875 158.339 58.875 164.777V197.337C58.875 203.775 54.213 208.437 47.775 208.437C44.371 208.437 41.485 207.179 39.487 204.959ZM101.487 203.109L98.9715 198.817H85.7255L83.2835 203.109C81.1375 206.809 77.5855 208.437 73.6635 208.437C67.2255 208.437 62.5635 203.775 62.5635 197.337C62.5635 195.265 63.0815 193.341 63.9695 191.713L82.6915 159.153C84.6155 155.823 88.0195 153.677 92.3855 153.677C96.7515 153.677 100.155 155.823 102.079 159.153L120.801 191.713C121.689 193.341 122.207 195.265 122.207 197.337C122.207 203.775 117.545 208.437 111.107 208.437C107.185 208.437 103.633 206.809 101.487 203.109ZM138.494 159.005L147.596 174.841L156.698 159.005C158.844 155.305 162.396 153.677 166.318 153.677C172.756 153.677 177.418 158.339 177.418 164.777C177.418 166.849 176.9 168.773 176.012 170.401L157.29 202.961C155.366 206.291 151.962 208.437 147.596 208.437C143.23 208.437 139.826 206.291 137.902 202.961L119.18 170.401C118.292 168.773 117.774 166.849 117.774 164.777C117.774 158.339 122.436 153.677 128.874 153.677C132.796 153.677 136.348 155.305 138.494 159.005ZM181.094 197.337V164.777C181.094 158.339 185.756 153.677 192.194 153.677C198.632 153.677 203.294 158.339 203.294 164.777V197.337C203.294 203.775 198.632 208.437 192.194 208.437C185.756 208.437 181.094 203.775 181.094 197.337ZM211.98 196.449C211.314 194.969 210.944 193.341 210.944 191.565C210.944 189.345 211.536 187.273 212.572 185.497C210.944 182.463 209.982 178.911 209.982 174.989C209.982 162.631 218.936 153.677 231.294 153.677C240.174 153.677 247.352 158.413 250.608 165.665C251.274 167.145 251.644 168.773 251.644 170.549C251.644 172.843 251.052 174.915 250.016 176.617C251.644 179.651 252.606 183.203 252.606 187.125C252.606 199.483 243.652 208.437 231.294 208.437C222.414 208.437 215.236 203.701 211.98 196.449Z"/>
</mask>
<path d="M39.487 204.959L43.2035 201.614L43.1832 201.591L43.1625 201.569L39.487 204.959ZM26.315 190.677L29.9905 187.287L21.315 177.88V190.677H26.315ZM23.503 157.155L19.7866 160.5L19.8069 160.522L19.8276 160.545L23.503 157.155ZM36.675 171.437L32.9996 174.827L41.675 184.233V171.437H36.675ZM39.487 204.959L43.1625 201.569L29.9905 187.287L26.315 190.677L22.6396 194.067L35.8116 208.349L39.487 204.959ZM26.315 190.677H21.315V197.337H26.315H31.315V190.677H26.315ZM26.315 197.337H21.315C21.315 201.013 18.8916 203.437 15.215 203.437V208.437V213.437C24.4145 213.437 31.315 206.536 31.315 197.337H26.315ZM15.215 208.437V203.437C11.5385 203.437 9.11504 201.013 9.11504 197.337H4.11504H-0.884961C-0.884961 206.536 6.01562 213.437 15.215 213.437V208.437ZM4.11504 197.337H9.11504V164.777H4.11504H-0.884961V197.337H4.11504ZM4.11504 164.777H9.11504C9.11504 161.1 11.5385 158.677 15.215 158.677V153.677V148.677C6.01562 148.677 -0.884961 155.577 -0.884961 164.777H4.11504ZM15.215 153.677V158.677C17.3364 158.677 18.8234 159.429 19.7866 160.5L23.503 157.155L27.2195 153.81C24.1867 150.44 19.9017 148.677 15.215 148.677V153.677ZM23.503 157.155L19.8276 160.545L32.9996 174.827L36.675 171.437L40.3505 168.047L27.1785 153.765L23.503 157.155ZM36.675 171.437H41.675V164.777H36.675H31.675V171.437H36.675ZM36.675 164.777H41.675C41.675 161.1 44.0985 158.677 47.775 158.677V153.677V148.677C38.5756 148.677 31.675 155.577 31.675 164.777H36.675ZM47.775 153.677V158.677C51.4516 158.677 53.875 161.1 53.875 164.777H58.875H63.875C63.875 155.577 56.9745 148.677 47.775 148.677V153.677ZM58.875 164.777H53.875V197.337H58.875H63.875V164.777H58.875ZM58.875 197.337H53.875C53.875 201.013 51.4516 203.437 47.775 203.437V208.437V213.437C56.9745 213.437 63.875 206.536 63.875 197.337H58.875ZM47.775 208.437V203.437C45.6537 203.437 44.1667 202.684 43.2035 201.614L39.487 204.959L35.7706 208.304C38.8034 211.673 43.0884 213.437 47.775 213.437V208.437ZM101.487 203.109L105.813 200.6L105.807 200.59L105.801 200.58L101.487 203.109ZM98.9715 198.817L103.285 196.288L101.836 193.817H98.9715V198.817ZM85.7255 198.817V193.817H82.8176L81.3797 196.344L85.7255 198.817ZM83.2835 203.109L87.6086 205.617L87.619 205.599L87.6293 205.581L83.2835 203.109ZM63.9695 191.713L59.6349 189.22L59.6069 189.269L59.58 189.319L63.9695 191.713ZM82.6915 159.153L78.3621 156.651L78.3569 156.66L82.6915 159.153ZM102.079 159.153L106.414 156.66L106.409 156.651L102.079 159.153ZM120.801 191.713L125.191 189.319L125.164 189.269L125.136 189.22L120.801 191.713ZM101.487 203.109L105.801 200.58L103.285 196.288L98.9715 198.817L94.658 201.345L97.174 205.637L101.487 203.109ZM98.9715 198.817V193.817H85.7255V198.817V203.817H98.9715V198.817ZM85.7255 198.817L81.3797 196.344L78.9377 200.636L83.2835 203.109L87.6293 205.581L90.0713 201.289L85.7255 198.817ZM83.2835 203.109L78.9583 200.6C77.844 202.521 76.0943 203.437 73.6635 203.437V208.437V213.437C79.0766 213.437 84.4309 211.096 87.6086 205.617L83.2835 203.109ZM73.6635 208.437V203.437C69.9869 203.437 67.5635 201.013 67.5635 197.337H62.5635H57.5635C57.5635 206.536 64.4641 213.437 73.6635 213.437V208.437ZM62.5635 197.337H67.5635C67.5635 196.101 67.8718 195 68.359 194.107L63.9695 191.713L59.58 189.319C58.2911 191.681 57.5635 194.429 57.5635 197.337H62.5635ZM63.9695 191.713L68.304 194.205L87.026 161.645L82.6915 159.153L78.3569 156.66L59.6349 189.22L63.9695 191.713ZM82.6915 159.153L87.0208 161.654C88.0653 159.846 89.8327 158.677 92.3855 158.677V153.677V148.677C86.2062 148.677 81.1657 151.799 78.3622 156.651L82.6915 159.153ZM92.3855 153.677V158.677C94.9382 158.677 96.7057 159.846 97.7502 161.654L102.079 159.153L106.409 156.651C103.605 151.799 98.5647 148.677 92.3855 148.677V153.677ZM102.079 159.153L97.7449 161.645L116.467 194.205L120.801 191.713L125.136 189.22L106.414 156.66L102.079 159.153ZM120.801 191.713L116.412 194.107C116.899 195 117.207 196.101 117.207 197.337H122.207H127.207C127.207 194.429 126.48 191.681 125.191 189.319L120.801 191.713ZM122.207 197.337H117.207C117.207 201.013 114.784 203.437 111.107 203.437V208.437V213.437C120.307 213.437 127.207 206.536 127.207 197.337H122.207ZM111.107 208.437V203.437C108.677 203.437 106.927 202.521 105.813 200.6L101.487 203.109L97.1623 205.617C100.34 211.096 105.694 213.437 111.107 213.437V208.437ZM138.494 159.005L142.829 156.513L142.824 156.505L142.82 156.496L138.494 159.005ZM147.596 174.841L143.261 177.332L147.596 184.875L151.931 177.332L147.596 174.841ZM156.698 159.005L152.373 156.496L152.368 156.505L152.363 156.513L156.698 159.005ZM176.012 170.401L180.347 172.893L180.375 172.844L180.402 172.795L176.012 170.401ZM157.29 202.961L161.62 205.462L161.625 205.453L157.29 202.961ZM137.902 202.961L133.568 205.453L133.573 205.462L137.902 202.961ZM119.18 170.401L114.791 172.795L114.818 172.844L114.846 172.893L119.18 170.401ZM138.494 159.005L134.159 161.496L143.261 177.332L147.596 174.841L151.931 172.349L142.829 156.513L138.494 159.005ZM147.596 174.841L151.931 177.332L161.033 161.496L156.698 159.005L152.363 156.513L143.261 172.349L147.596 174.841ZM156.698 159.005L161.024 161.513C162.138 159.592 163.888 158.677 166.318 158.677V153.677V148.677C160.905 148.677 155.551 151.017 152.373 156.496L156.698 159.005ZM166.318 153.677V158.677C169.995 158.677 172.418 161.1 172.418 164.777H177.418H182.418C182.418 155.577 175.518 148.677 166.318 148.677V153.677ZM177.418 164.777H172.418C172.418 166.013 172.11 167.113 171.623 168.007L176.012 170.401L180.402 172.795C181.691 170.432 182.418 167.685 182.418 164.777H177.418ZM176.012 170.401L171.678 167.908L152.956 200.468L157.29 202.961L161.625 205.453L180.347 172.893L176.012 170.401ZM157.29 202.961L152.961 200.459C151.917 202.267 150.149 203.437 147.596 203.437V208.437V213.437C153.776 213.437 158.816 210.314 161.62 205.462L157.29 202.961ZM147.596 208.437V203.437C145.044 203.437 143.276 202.267 142.232 200.459L137.902 202.961L133.573 205.462C136.377 210.314 141.417 213.437 147.596 213.437V208.437ZM137.902 202.961L142.237 200.468L123.515 167.908L119.18 170.401L114.846 172.893L133.568 205.453L137.902 202.961ZM119.18 170.401L123.57 168.007C123.083 167.113 122.774 166.013 122.774 164.777H117.774H112.774C112.774 167.685 113.502 170.432 114.791 172.795L119.18 170.401ZM117.774 164.777H122.774C122.774 161.1 125.198 158.677 128.874 158.677V153.677V148.677C119.675 148.677 112.774 155.577 112.774 164.777H117.774ZM128.874 153.677V158.677C131.305 158.677 133.055 159.592 134.169 161.513L138.494 159.005L142.82 156.496C139.642 151.017 134.288 148.677 128.874 148.677V153.677ZM181.094 197.337H186.094V164.777H181.094H176.094V197.337H181.094ZM181.094 164.777H186.094C186.094 161.1 188.517 158.677 192.194 158.677V153.677V148.677C182.994 148.677 176.094 155.577 176.094 164.777H181.094ZM192.194 153.677V158.677C195.87 158.677 198.294 161.1 198.294 164.777H203.294H208.294C208.294 155.577 201.393 148.677 192.194 148.677V153.677ZM203.294 164.777H198.294V197.337H203.294H208.294V164.777H203.294ZM203.294 197.337H198.294C198.294 201.013 195.87 203.437 192.194 203.437V208.437V213.437C201.393 213.437 208.294 206.536 208.294 197.337H203.294ZM192.194 208.437V203.437C188.517 203.437 186.094 201.013 186.094 197.337H181.094H176.094C176.094 206.536 182.994 213.437 192.194 213.437V208.437ZM211.98 196.449L216.542 194.401L216.54 194.397L211.98 196.449ZM212.572 185.497L216.891 188.016L218.301 185.599L216.978 183.133L212.572 185.497ZM250.608 165.665L246.047 167.713L246.049 167.717L250.608 165.665ZM250.016 176.617L245.745 174.017L244.258 176.46L245.611 178.981L250.016 176.617ZM211.98 196.449L216.54 194.397C216.161 193.554 215.944 192.625 215.944 191.565H210.944H205.944C205.944 194.056 206.468 196.383 207.421 198.501L211.98 196.449ZM210.944 191.565H215.944C215.944 190.245 216.294 189.041 216.891 188.016L212.572 185.497L208.254 182.977C206.779 185.505 205.944 188.444 205.944 191.565H210.944ZM212.572 185.497L216.978 183.133C215.736 180.818 214.982 178.077 214.982 174.989H209.982H204.982C204.982 179.744 206.153 184.107 208.167 187.861L212.572 185.497ZM209.982 174.989H214.982C214.982 165.392 221.698 158.677 231.294 158.677V153.677V148.677C216.175 148.677 204.982 159.869 204.982 174.989H209.982ZM231.294 153.677V158.677C238.296 158.677 243.634 162.338 246.047 167.713L250.608 165.665L255.17 163.617C251.071 154.487 242.053 148.677 231.294 148.677V153.677ZM250.608 165.665L246.049 167.717C246.428 168.559 246.644 169.488 246.644 170.549H251.644H256.644C256.644 168.057 256.121 165.73 255.168 163.613L250.608 165.665ZM251.644 170.549H246.644C246.644 171.976 246.279 173.14 245.745 174.017L250.016 176.617L254.287 179.217C255.826 176.689 256.644 173.71 256.644 170.549H251.644ZM250.016 176.617L245.611 178.981C246.853 181.295 247.606 184.036 247.606 187.125H252.606H257.606C257.606 182.369 256.436 178.006 254.422 174.253L250.016 176.617ZM252.606 187.125H247.606C247.606 196.721 240.891 203.437 231.294 203.437V208.437V213.437C246.414 213.437 257.606 202.244 257.606 187.125H252.606ZM231.294 208.437V203.437C224.293 203.437 218.955 199.775 216.542 194.401L211.98 196.449L207.419 198.497C211.518 207.626 220.536 213.437 231.294 213.437V208.437Z" fill="#D9D9D9" mask="url(#path-2-inside-1_2071_220)"/>
</svg>
